# xmcd CD database file
#
# Track frame offsets:
#	150
#	18065
#	34591
#	51912
#	71522
#	89549
#	110886
#	128096
#	147718
#	164663
#
# Disc length: 2414 seconds
#
# Revision: 0
# Processed by: cddbd v1.5.2PL0 Copyright (c) Steve Scherf et al.
# Submitted via: CDex 1.51
#
DISCID=90096c0a
DTITLE=Mark Wills - Looking For America
DYEAR=2011
DGENRE=Country
TTITLE0=Mark Wills - Rockin' The Country
TTITLE1=Mark Wills - Looking For America 
TTITLE2=Mark Wills - Crazy Being Home 
TTITLE3=Mark Wills - Like There's No Yesterday 
TTITLE4=Mark Wills - Rather Be
TTITLE5=Mark Wills - The Whole World
TTITLE6=Mark Wills - Smokin' Gun 
TTITLE7=Mark Wills - Phantom Of The Opry 
TTITLE8=Mark Wills - Where Did I Lose You 
TTITLE9=Mark Wills - Crazy Being Home (Acoustic Version) 
EXTD=YEAR: 2011
EXTT0=
EXTT1=
EXTT2=
EXTT3=
EXTT4=
EXTT5=
EXTT6=
EXTT7=
EXTT8=
EXTT9=
PLAYORDER=
